<svg width="20" height="20" viewBox="0 0 20 20" fill="none" xmlns="http://www.w3.org/2000/svg">
<g clip-path="url(#clip0_883_6724)">
<path d="M5.67578 11.6142H7.77411V19.3742C7.77411 19.7192 8.05328 19.9992 8.39911 19.9992L11.7383 20C12.0841 20 12.3633 19.7192 12.3633 19.375V11.615H14.3524C14.6674 11.615 14.9333 11.38 14.9724 11.0675L15.3874 7.73417C15.4341 7.3625 15.1433 7.03167 14.7674 7.03167H12.3633C12.4574 4.9725 12.0008 4.36333 13.3399 4.36333C14.2466 4.255 15.6766 4.71417 15.6766 3.73833V0.7575C15.6766 0.445 15.4458 0.180833 15.1366 0.138333C14.8749 0.1025 13.8408 0 12.5583 0C6.71662 0 7.91912 6.47667 7.77495 7.03083H5.67578C5.33078 7.03083 5.05078 7.31083 5.05078 7.65583V10.9892C5.05078 11.3342 5.33078 11.6142 5.67578 11.6142ZM6.30078 8.28167H8.39911C8.74411 8.28167 9.02411 8.00167 9.02411 7.65667V5.03083C9.02411 2.62833 10.3116 1.25083 12.5574 1.25083C13.2891 1.25083 13.9624 1.28667 14.4258 1.32333V3.11417C14.0908 3.285 11.1124 2.3775 11.1124 5.36167V7.6575C11.1124 8.0025 11.3924 8.2825 11.7374 8.2825H14.0591L13.7991 10.3658H11.7374C11.3924 10.3658 11.1124 10.6458 11.1124 10.9908V18.75H9.02495V10.99C9.02495 10.645 8.74495 10.365 8.39995 10.365H6.30078V8.28167Z" fill="#121D1F"/>
</g>
<defs>
<clipPath id="clip0_883_6724">
<rect width="20" height="20" fill="white"/>
</clipPath>
</defs>
</svg>
