<svg width="16" height="16" viewBox="0 0 16 16" fill="none" xmlns="http://www.w3.org/2000/svg">
<g clip-path="url(#clip0_883_6436)">
<path d="M12.3939 15.9999C12.4625 15.9999 15.5685 15.9992 15.5005 15.9992C15.7765 15.9992 16.0005 15.7752 16.0005 15.4992C15.7672 10.2612 17.2285 4.73389 11.7752 4.73389C10.7265 4.73389 9.8912 5.09189 9.2892 5.56522C9.2892 4.59122 8.23653 5.12989 5.80653 4.98522C5.53053 4.98522 5.30653 5.20922 5.30653 5.48522C5.50786 14.9292 4.85719 15.9992 5.80653 15.9992H8.9132C9.8152 15.9992 9.2412 14.7272 9.4132 10.5406C9.4132 8.81122 9.9132 8.47255 10.7772 8.47255C11.7332 8.47255 11.8939 9.13655 11.8939 10.6246C12.0652 14.7359 11.4952 15.9999 12.3939 15.9999ZM10.7772 7.47255C7.7832 7.47255 8.4132 10.7646 8.4132 14.9992H6.30653V5.98522H8.2892V6.85055C8.2892 7.33055 9.02053 7.56655 9.2752 7.08389C9.6032 6.46122 10.4552 5.73389 11.7752 5.73389C14.1265 5.73389 15.0005 6.88922 15.0005 9.99789V14.9999H12.8939C12.8939 10.2372 13.3979 7.47255 10.7772 7.47255Z" fill="black"/>
<path d="M0.746856 4.98581C-0.199811 4.98581 0.448189 6.04247 0.246856 15.4998C0.246856 15.7758 0.470856 15.9998 0.746856 15.9998H3.85686C4.80352 15.9998 4.15552 14.9431 4.35686 5.48581C4.35686 4.62247 3.10286 5.13181 0.746856 4.98581ZM3.35686 14.9998H1.24686V5.98581H3.35686V14.9998Z" fill="black"/>
<path d="M2.30054 0C-0.75013 0 -0.731463 4.61933 2.30054 4.61933C5.33054 4.61933 5.35454 0 2.30054 0ZM2.30054 3.61933C0.588537 3.61933 0.572537 1 2.30054 1C4.03187 1 4.00987 3.61933 2.30054 3.61933Z" fill="black"/>
</g>
<defs>
<clipPath id="clip0_883_6436">
<rect width="16" height="16" fill="white"/>
</clipPath>
</defs>
</svg>
