<svg width="40" height="40" viewBox="0 0 40 40" fill="none" xmlns="http://www.w3.org/2000/svg">
<g clip-path="url(#clip0_883_1519)">
<path d="M38.0629 13.6474C37.9054 13.1979 37.4132 12.9614 36.964 13.1192C36.5147 13.277 36.2782 13.7691 36.4358 14.2184C37.5073 17.2717 37.7084 20.5605 37.0174 23.7292C36.308 26.9819 34.6826 29.9516 32.3171 32.3172C27.0929 37.5416 19.3484 38.7462 12.9609 35.933C16.8884 33.3459 21.2714 29.7041 25.488 25.4876C27.2407 23.7347 28.9117 21.9357 30.4544 20.1406C30.7647 19.7793 30.7235 19.2349 30.3622 18.9245C30.001 18.6141 29.4566 18.6553 29.1463 19.0164C27.6318 20.7789 25.9907 22.5459 24.2684 24.2681C19.8252 28.7113 15.2123 32.4923 11.1862 35.0262C9.9347 34.2924 8.7558 33.3897 7.68322 32.3172C5.63244 30.2666 4.11643 27.7227 3.29878 24.9603C3.1637 24.5037 2.68401 24.2431 2.22722 24.3782C1.77058 24.5133 1.51003 24.9931 1.64511 25.4498C2.54409 28.4869 4.21034 31.2833 6.46361 33.5365C7.41314 34.486 8.43885 35.3142 9.52072 36.0222C9.08095 36.2703 8.65002 36.5016 8.22955 36.714C5.19838 38.2454 2.91253 38.683 2.11448 37.8854C1.31659 37.0875 1.7544 34.8015 3.28581 31.7703C3.50049 31.3452 3.3301 30.8266 2.90487 30.6119C2.48003 30.3971 1.9612 30.5676 1.74643 30.9928C-0.249812 34.9443 -0.536218 37.6737 0.894952 39.1049C1.4919 39.7019 2.3144 40 3.35729 40C4.81518 40 6.70354 39.4173 9.00728 38.2536C9.72345 37.8916 10.4679 37.4783 11.2344 37.0196C13.9753 38.4289 16.9873 39.1347 19.9998 39.1347C24.9021 39.1347 29.8041 37.2687 33.5361 33.5367C36.1357 30.9372 37.9219 27.6729 38.7018 24.0968C39.4614 20.6157 39.2403 17.0024 38.0629 13.6474Z" fill="white" fill-opacity="0.8"/>
<path d="M35.0969 8.22552C34.617 7.61169 34.0923 7.01903 33.5372 6.46388C29.9214 2.84826 25.1143 0.856934 20.0009 0.856934C14.8875 0.856934 10.0803 2.84826 6.46452 6.46388C4.2957 8.6327 2.72117 11.2025 1.78492 14.1018C0.891956 16.8666 0.638909 19.852 1.05289 22.7353C1.11461 23.1652 1.48336 23.4751 1.90531 23.4751C1.94609 23.4751 1.98742 23.4722 2.02891 23.4663C2.50039 23.3985 2.82766 22.9615 2.75992 22.4902C2.38313 19.8655 2.61344 17.1482 3.42594 14.6319C4.2775 11.995 5.71007 9.65715 7.68405 7.68333C14.4757 0.891699 25.5264 0.891933 32.3177 7.68333C32.8235 8.18911 33.3015 8.72887 33.7384 9.28778C34.0317 9.66294 34.5737 9.72926 34.9487 9.43598C35.324 9.1427 35.3903 8.60067 35.0969 8.22552Z" fill="white" fill-opacity="0.8"/>
<path d="M39.1022 0.895004C37.6706 -0.536478 34.9413 -0.249682 30.9892 1.74727C30.5643 1.96203 30.3937 2.4807 30.6084 2.9057C30.8234 3.33078 31.342 3.50102 31.7671 3.28641C36.2595 1.01641 37.5838 1.81547 37.8827 2.11438C38.1816 2.41328 38.9806 3.73781 36.7107 8.23007C35.4408 10.743 33.4574 13.7099 30.9751 16.8099C30.6774 17.1816 30.7376 17.7243 31.1092 18.0219C31.2682 18.1494 31.4585 18.2111 31.6477 18.2111C31.9005 18.2111 32.151 18.1004 32.3213 17.8877C34.8769 14.6962 36.9272 11.6255 38.2499 9.0078C40.2467 5.05586 40.5334 2.32633 39.1022 0.895004Z" fill="white" fill-opacity="0.8"/>
</g>
<defs>
<clipPath id="clip0_883_1519">
<rect width="40" height="40" fill="white"/>
</clipPath>
</defs>
</svg>
