<svg width="314" height="116" viewBox="0 0 314 116" fill="none" xmlns="http://www.w3.org/2000/svg">
<circle cx="256" cy="58" r="58" fill="#BAC9CE"/>
<path d="M274.822 65.6113H238.297V68.6545H274.822V65.6113Z" fill="#121D1F"/>
<path d="M259.598 89.9568H253.512V93H259.598V89.9568Z" fill="#121D1F"/>
<path d="M238.301 62.5679H235.258V65.6111H238.301V62.5679Z" fill="#121D1F"/>
<path d="M232.211 47.3522H229.168V56.4816H232.211V47.3522Z" fill="#121D1F"/>
<path d="M247.426 29.0863H241.34V32.1295H247.426V29.0863Z" fill="#121D1F"/>
<path d="M271.774 29.0863H265.688V32.1295H271.774V29.0863Z" fill="#121D1F"/>
<path d="M238.301 38.223H235.258V41.2662H238.301V38.223Z" fill="#121D1F"/>
<path d="M277.867 38.223H274.824V41.2662H277.867V38.223Z" fill="#121D1F"/>
<path d="M250.469 26.0428H247.426V29.086H250.469V26.0428Z" fill="#121D1F"/>
<path d="M265.688 26.0428H262.645V29.086H265.688V26.0428Z" fill="#121D1F"/>
<path d="M277.867 62.5679H274.824V65.6111H277.867V62.5679Z" fill="#121D1F"/>
<path d="M265.688 71.6974H262.645V74.7405H265.688V71.6974Z" fill="#121D1F"/>
<path d="M250.469 74.7411H247.426V77.7842H250.469V74.7411Z" fill="#121D1F"/>
<path d="M241.34 32.1298H238.297V38.2161H241.34V32.1298Z" fill="#121D1F"/>
<path d="M274.817 32.1298H271.773V38.2161H274.817V32.1298Z" fill="#121D1F"/>
<path d="M235.254 41.2662H232.211V47.3525H235.254V41.2662Z" fill="#121D1F"/>
<path d="M280.906 41.2662H277.863V47.3525H280.906V41.2662Z" fill="#121D1F"/>
<path d="M235.254 56.4819H232.211V62.5682H235.254V56.4819Z" fill="#121D1F"/>
<path d="M262.641 68.6545H259.598V89.9565H262.641V68.6545Z" fill="#121D1F"/>
<path d="M253.512 68.6545H250.469V89.9565H253.512V68.6545Z" fill="#121D1F"/>
<path d="M283.949 47.3522H280.906V56.4816H283.949V47.3522Z" fill="#121D1F"/>
<path d="M277.867 41.2662H274.824V62.5682H277.867V41.2662Z" fill="#4EB947"/>
<path d="M274.817 38.223H271.773V62.5682H274.817V38.223Z" fill="#4EB947"/>
<path d="M268.731 32.1298H265.688V65.6116H268.731V32.1298Z" fill="#4EB947"/>
<path d="M265.688 29.0863H262.645V65.6114H265.688V29.0863Z" fill="#4EB947"/>
<path d="M262.641 26.0428H259.598V65.611H262.641V26.0428Z" fill="#4EB947"/>
<path d="M256.555 26.0428H253.512V65.611H256.555V26.0428Z" fill="#4EB947"/>
<path d="M253.512 26.0428H250.469V65.611H253.512V26.0428Z" fill="#4EB947"/>
<path d="M250.469 29.0863H247.426V65.6114H250.469V29.0863Z" fill="#4EB947"/>
<path d="M247.43 32.1298H244.387V65.6116H247.43V32.1298Z" fill="#4EB947"/>
<path d="M244.383 32.1298H241.34V65.6116H244.383V32.1298Z" fill="#4EB947"/>
<path d="M241.34 38.223H238.297V65.6186H241.34V38.223Z" fill="#4EB947"/>
<path d="M238.301 41.2662H235.258V62.5682H238.301V41.2662Z" fill="#4EB947"/>
<path d="M235.254 47.3522H232.211V56.4816H235.254V47.3522Z" fill="#298941"/>
<path d="M256.555 26.0428V65.611H259.598V59.5247V26.0428H256.555Z" fill="#4EB947"/>
<path d="M259.598 68.6545H256.555V89.9565H259.598V68.6545Z" fill="#733E3A"/>
<path d="M256.555 68.6545H253.512V89.9565H256.555V68.6545Z" fill="#B86F50"/>
<path d="M271.774 32.1298H268.73V59.5254H271.774V32.1298Z" fill="#4EB947"/>
<path d="M277.859 62.5679H280.902V56.4816H277.859V62.5679Z" fill="#121D1F"/>
<path d="M259.605 38.223H262.648V35.1799H259.605V38.223Z" fill="#298941"/>
<path d="M247.426 38.223H250.469V35.1799H247.426V38.223Z" fill="#298941"/>
<path d="M268.738 50.3884H271.781V47.3452H268.738V50.3884Z" fill="#298941"/>
<path d="M247.426 62.5679H250.469V59.5248H247.426V62.5679Z" fill="#298941"/>
<path d="M259.605 41.2589H265.691V38.2158H259.605V41.2589Z" fill="#298941"/>
<path d="M247.43 47.3522H244.387V50.3953H247.43V47.3522Z" fill="#298941"/>
<path d="M247.426 50.3956H241.34V53.4387H247.426V50.3956Z" fill="#298941"/>
<path d="M262.641 23H250.469V26.0431H262.641V23Z" fill="#121D1F"/>
<path d="M280.906 47.3522H277.863V56.4816H280.906V47.3522Z" fill="#298941"/>
<path d="M277.867 53.4387H274.824V62.5682H277.867V53.4387Z" fill="#298941"/>
<path d="M235.254 47.3522H232.211V56.4816H235.254V47.3522Z" fill="#298941"/>
<path d="M274.817 56.4819H271.773V65.6114H274.817V56.4819Z" fill="#298941"/>
<path d="M238.301 53.4387H235.258V62.5682H238.301V53.4387Z" fill="#298941"/>
<path d="M271.774 59.525H268.73V65.6113H271.774V59.525Z" fill="#298941"/>
<path d="M268.731 59.525H265.688V65.6113H268.731V59.525Z" fill="#298941"/>
<path d="M265.688 59.525H262.645V65.6113H265.688V59.525Z" fill="#298941"/>
<path d="M262.642 62.5679H247.426V65.6111H262.642V62.5679Z" fill="#298941"/>
<path d="M247.43 59.525H244.387V65.6113H247.43V59.525Z" fill="#298941"/>
<path d="M244.383 59.525H241.34V65.6113H244.383V59.525Z" fill="#298941"/>
<path d="M241.34 56.4819H238.297V65.6114H241.34V56.4819Z" fill="#298941"/>
<path d="M253.512 32.1298H250.469V35.1729H253.512V32.1298Z" fill="#6AE061"/>
<path d="M268.731 50.3956H265.688V53.4387H268.731V50.3956Z" fill="#6AE061"/>
<path d="M259.598 41.2662H256.555V44.3093H259.598V41.2662Z" fill="#6AE061"/>
<path d="M250.469 53.4387H247.426V56.4819H250.469V53.4387Z" fill="#6AE061"/>
<circle cx="190" cy="58" r="58" fill="#C4D2D6"/>
<path d="M203.431 55.1619H198.138V49.8684H192.462V44.1847H187.168V38.8912H181.874V33.5977H176.581V38.8912H170.906V44.1847H176.581V49.8594H181.874V55.1529H187.168V60.4464H192.462V65.7399H198.138V71.4146H203.431V76.7081H208.725V71.4146H214.018V65.7399H208.725V60.4464H203.431V55.1619Z" fill="#175E74"/>
<path d="M208.731 38.8912H203.438V33.5977H187.164V38.8912H192.458V44.1847H198.134V49.8594H203.427V55.1529H208.721V60.4464H214.014V44.1847H208.721L208.731 38.8912Z" fill="#175E74"/>
<path d="M192.458 71.4312H187.165V65.7565H181.871V60.463H176.578V55.1695H170.903V49.876H165.609V71.4433H170.903V76.7368H176.578V82.0303H198.146V76.7368H192.47L192.458 71.4312Z" fill="#175E74"/>
<path d="M198.138 28.3041H181.867V33.5976H198.138V28.3041Z" fill="#2B7288"/>
<path d="M214.027 65.7565H219.702V49.8638H214.027V65.7565Z" fill="#2B7288"/>
<path d="M208.73 76.7293H214.024V71.4357H208.73V76.7293Z" fill="#2B7288"/>
<path d="M192.461 87.3239H203.434V82.0303H192.461V87.3239Z" fill="#2B7288"/>
<path d="M176.565 33.5977H170.891V38.8912H176.565V33.5977Z" fill="#175E74"/>
<path d="M160.297 44.1847V71.4267H165.59V44.1847H160.297Z" fill="#175E74"/>
<path d="M165.594 71.4312V76.7247H170.887V71.4312H165.594Z" fill="#175E74"/>
<path d="M170.891 76.7292V82.0228H176.565V76.7292H170.891Z" fill="#175E74"/>
<path d="M176.57 87.3239H192.463V82.0303H176.57V87.3239Z" fill="#175E74"/>
<path d="M176.57 28.3041V33.5976H181.864V28.3041H176.57Z" fill="#DAE7EB"/>
<path d="M198.137 28.3041V33.5976H203.43V28.3041H198.137Z" fill="#DAE7EB"/>
<path d="M181.867 33.5977V38.8912H187.161V33.5977H181.867Z" fill="#DAE7EB"/>
<path d="M203.434 33.5977V38.8912H208.727V33.5977H203.434Z" fill="#DAE7EB"/>
<path d="M203.436 71.4312H198.142V65.7565H192.466V60.463H187.172V55.1695H181.879V49.8759H176.585V44.1846H170.911V38.8911H165.617V49.8638H170.911V55.1574H176.585V60.4509H181.879V65.7444H187.172V71.419H192.466V76.7126H198.142V82.0061H208.729V76.7126H203.436V71.4312Z" fill="#DAE7EB"/>
<path d="M187.164 38.8911V44.1846H192.458V38.8911H187.164Z" fill="#DAE7EB"/>
<path d="M208.73 38.8911V44.1846H214.024V38.8911H208.73Z" fill="#DAE7EB"/>
<path d="M192.461 44.1847V49.8594H198.137V44.1847H192.461Z" fill="#DAE7EB"/>
<path d="M219.702 49.8639V44.1847H214.027V49.8594L219.702 49.8639Z" fill="#DAE7EB"/>
<path d="M198.137 49.8638V55.1574H203.43V49.8638H198.137Z" fill="#DAE7EB"/>
<path d="M203.434 55.1619V60.4554H208.727V55.1619H203.434Z" fill="#DAE7EB"/>
<path d="M208.73 60.4585V65.752H214.024V60.4585H208.73Z" fill="#DAE7EB"/>
<path d="M219.702 71.4312V65.7565H214.027V71.4312H219.702Z" fill="#DAE7EB"/>
<path d="M203.434 23H176.57V28.298H203.434V23Z" fill="#121D1F"/>
<path d="M176.567 28.2966H170.891V33.5931H176.567V28.2966Z" fill="#121D1F"/>
<path d="M208.732 28.2966H203.434V33.5931H208.732V28.2966Z" fill="#121D1F"/>
<path d="M170.892 33.5945H165.594V38.8926H170.892V33.5945Z" fill="#121D1F"/>
<path d="M214.027 33.5945H208.73V38.8926H214.027V33.5945Z" fill="#121D1F"/>
<path d="M165.593 38.8911H160.297V44.1877H165.593V38.8911Z" fill="#121D1F"/>
<path d="M219.704 38.8911H214.027V44.1877H219.704V38.8911Z" fill="#121D1F"/>
<path d="M160.297 44.1892H155V71.4327H160.297V44.1892Z" fill="#121D1F"/>
<path d="M225.001 44.1892H219.703V71.4327H225.001V44.1892Z" fill="#121D1F"/>
<path d="M165.593 71.4312H160.297V76.7278H165.593V71.4312Z" fill="#121D1F"/>
<path d="M219.704 71.4312H214.027V76.7278H219.704V71.4312Z" fill="#121D1F"/>
<path d="M170.892 76.7292H165.594V82.0258H170.892V76.7292Z" fill="#121D1F"/>
<path d="M214.027 76.7292H208.73V82.0258H214.027V76.7292Z" fill="#121D1F"/>
<path d="M176.567 82.0258H170.891V87.3223H176.567V82.0258Z" fill="#121D1F"/>
<path d="M208.732 82.0258H203.434V87.3223H208.732V82.0258Z" fill="#121D1F"/>
<path d="M203.434 87.3239H176.57V93H203.434V87.3239Z" fill="#121D1F"/>
<circle cx="124" cy="58" r="58" fill="#C9D7DB"/>
<path d="M138.844 66.7497V71.1238V79.8735H143.229V62.3741H138.844V66.7497Z" fill="#4492AA"/>
<path d="M134.463 84.2489H108.156V88.6244H134.463V84.2489Z" fill="#4492AA"/>
<path d="M138.846 79.8749H134.461V84.2504H138.846V79.8749Z" fill="#4492AA"/>
<path d="M103.768 71.1237H99.3828V79.8734H103.768V71.1237Z" fill="#4492AA"/>
<path d="M108.151 79.8749H103.766V84.2504H108.151V79.8749Z" fill="#4492AA"/>
<path d="M121.307 36.1252H116.922V40.5007H121.307V36.1252Z" fill="#7C4D32"/>
<path d="M121.307 27.3755H116.922V31.7511H121.307V27.3755Z" fill="#6A3314"/>
<path d="M121.305 71.1237H130.074V75.4993H134.459V71.1237H138.843V66.7496H121.305V71.1237Z" fill="#2B7288"/>
<path d="M125.69 27.3755H121.305V31.7511H125.69V27.3755Z" fill="#91654D"/>
<path d="M125.69 36.1252H121.305V40.5007H125.69V36.1252Z" fill="#90654D"/>
<path d="M130.073 49.2489H125.688V53.6244H130.073V49.2489Z" fill="#DAE7EB"/>
<path d="M134.463 53.6245H130.078V58H134.463V53.6245Z" fill="#DAE7EB"/>
<path d="M138.846 58.0001H134.461V62.3756H138.846V58.0001Z" fill="#DAE7EB"/>
<path d="M108.151 58.0001H103.766V62.3756H108.151V58.0001Z" fill="#DAE7EB"/>
<path d="M103.768 62.3741H99.3828V71.1238H103.768V62.3741Z" fill="#DAE7EB"/>
<path d="M116.924 49.2489H112.539V53.6244H116.924V49.2489Z" fill="#DAE7EB"/>
<path d="M121.308 36.1251H125.692H130.077V31.7496H125.692H121.308H116.923H112.539V36.1251H116.923H121.308Z" fill="#DAE7EB"/>
<path d="M112.541 53.6245H108.156V58H112.541V53.6245Z" fill="#DAE7EB"/>
<path d="M112.539 62.3741V75.4993H116.923V66.7497V62.3741H112.539Z" fill="#DAE7EB"/>
<path d="M125.691 40.4993H121.307H116.922V49.2489H125.691V40.4993Z" fill="#DAE7EB"/>
<path d="M121.307 58.0001H116.922V62.3756H121.307V58.0001Z" fill="#DAE7EB"/>
<path d="M116.924 58.0001H112.539V62.3756H116.924V58.0001Z" fill="#121D1F"/>
<path d="M143.229 58.0001H138.844V62.3756H143.229V58.0001Z" fill="#121D1F"/>
<path d="M138.846 53.6245H134.461V58H138.846V53.6245Z" fill="#121D1F"/>
<path d="M143.229 79.8749H138.844V84.2504H143.229V79.8749Z" fill="#121D1F"/>
<path d="M134.463 49.2489H130.078V53.6244H134.463V49.2489Z" fill="#121D1F"/>
<path d="M112.541 31.7496H108.156V36.1251H112.541V31.7496Z" fill="#121D1F"/>
<path d="M125.688 40.4993V49.2489H130.073V36.1252H125.688V40.4993Z" fill="#121D1F"/>
<path d="M138.846 84.2489H134.461V88.6244H138.846V84.2489Z" fill="#121D1F"/>
<path d="M134.463 88.6245H108.156V93H134.463V88.6245Z" fill="#121D1F"/>
<path d="M147.62 62.3741H143.234V79.8735H147.62V62.3741Z" fill="#121D1F"/>
<path d="M134.463 31.7496H130.078V36.1251H134.463V31.7496Z" fill="#121D1F"/>
<path d="M108.151 84.2489H103.766V88.6244H108.151V84.2489Z" fill="#121D1F"/>
<path d="M116.922 62.3741V66.7497H121.307H138.845V62.3741H134.461H121.307H116.922Z" fill="#121D1F"/>
<path d="M130.073 27.3755H125.688V31.7511H130.073V27.3755Z" fill="#121D1F"/>
<path d="M125.691 27.3755V23H116.922V27.3755H121.307H125.691Z" fill="#121D1F"/>
<path d="M103.768 79.8749H99.3828V84.2504H103.768V79.8749Z" fill="#121D1F"/>
<path d="M112.541 49.2489H108.156V53.6244H112.541V49.2489Z" fill="#121D1F"/>
<path d="M116.923 40.4993V36.1252H112.539V49.2489H116.923V40.4993Z" fill="#121D1F"/>
<path d="M116.924 27.3755H112.539V31.7511H116.924V27.3755Z" fill="#121D1F"/>
<path d="M99.3852 62.3741H95V79.8735H99.3852V71.1238V62.3741Z" fill="#121D1F"/>
<path d="M103.768 58.0001H99.3828V62.3756H103.768V58.0001Z" fill="#121D1F"/>
<path d="M108.151 53.6245H103.766V58H108.151V53.6245Z" fill="#121D1F"/>
<path d="M147.613 36.1252V31.7497H151.998V27.3755H147.613V23H143.229V27.3755H138.844V31.7497H143.229V36.1252H147.613Z" fill="#175E74"/>
<path d="M103.769 49.2489V44.8748H108.154V40.4993H103.769V36.1252H99.3852V40.4993H95V44.8748H99.3852V49.2489H103.769Z" fill="#175E74"/>
<path d="M108.151 84.249H134.459V79.8734H138.843V71.1238H134.459V75.4993H130.074V71.1238H121.305V66.7497H116.92V75.4993H112.536V62.3741V58.0001H108.151V62.3741H103.766V71.1238V79.8734H108.151V84.249Z" fill="#175E74"/>
<path d="M138.846 40.4993H134.461V44.8748H138.846V40.4993Z" fill="#175E74"/>
<path d="M121.308 58V62.3741H134.462V58H130.077V53.6244H125.692V49.2489H116.923V53.6244H112.539V58H116.923H121.308Z" fill="#4392AA"/>
<circle cx="58" cy="58" r="58" fill="#D0DEE2"/>
<path d="M53.1016 47.9747V52.8959H57.9981V47.9747H53.1016Z" fill="#175E74"/>
<path d="M47.8516 57.8242H53.1021V52.9029H47.8516V57.8242Z" fill="#175E74"/>
<path d="M58 47.9747V52.8959H62.8965V47.9747H58Z" fill="#2B7288"/>
<path d="M62.8984 52.9001V57.8214H67.795V52.9001H62.8984Z" fill="#2B7288"/>
<path d="M53.1016 52.9001V62.7497H62.9016V52.9001H53.1016Z" fill="#175E74"/>
<path d="M58 27.9311V32.8524H62.8965V27.9311H58Z" fill="#175E74"/>
<path d="M67.8028 32.8524H62.9062V37.7736H67.8028V32.8524Z" fill="#175E74"/>
<path d="M82.8536 52.9002V47.9789H77.9571V52.9002H73.0606V47.9789H67.8087V42.6949H62.9122V37.7736H58.0156V47.9747H62.9122V52.896H67.8087V57.8172H87.7586V52.896L82.8536 52.9002Z" fill="#175E74"/>
<path d="M73.0496 42.6949V37.7736H67.8047V42.6949H73.0496Z" fill="#175E74"/>
<path d="M77.9512 47.9747V42.6949H73.0547V47.9705L77.9512 47.9747Z" fill="#175E74"/>
<path d="M62.8984 62.7498H67.795V57.8285H62.8984V62.7498Z" fill="#175E74"/>
<path d="M58 68.0253H62.8965V62.7498H58V68.0253Z" fill="#175E74"/>
<path d="M53.0963 52.9001V47.9789H57.9929V27.9311H53.0963V32.8523H47.8459V37.7736H42.9493V42.6949H38.0528V47.9705H33.1562V57.813H47.8459V52.8917L53.0963 52.9001Z" fill="#2B7288"/>
<path d="M47.8516 57.8242V62.7455H53.1021V57.8242H47.8516Z" fill="#175E74"/>
<path d="M67.8087 62.7497H62.9122V68.0253H58.0156V82.8003H62.9122V77.8791H67.8087V72.9578H73.0592V68.0366H77.9557V62.761H87.7488V57.8397H67.8087V62.7497Z" fill="#2B7288"/>
<path d="M53.1016 62.7498V68.0253H57.9981V62.7498H53.1016Z" fill="#175E74"/>
<path d="M38.0459 68.0253V72.9465H42.9424V77.8678H47.8389V82.7891H53.0894V88.0646H62.8895V82.7891H57.993V68.0253H53.0964V62.7497H47.8459V57.8284H33.1465V52.9072H28.25V62.7567H33.1465V68.0323L38.0459 68.0253Z" fill="#175E74"/>
<path d="M82.8497 62.7498H77.9531V68.0253H82.8497V62.7498Z" fill="#175E74"/>
<path d="M77.9512 68.0253H73.0547V72.9466H77.9512V68.0253Z" fill="#175E74"/>
<path d="M73.0496 72.9508H67.8047V77.8721H73.0552L73.0496 72.9508Z" fill="#175E74"/>
<path d="M67.8028 77.8748H62.9062V82.796H67.8028V77.8748Z" fill="#175E74"/>
<path d="M62.8965 32.8524H58V37.7736H62.8965V32.8524Z" fill="#2B7288"/>
<path d="M67.8028 42.6949V37.7736H62.9062V42.6949H67.8028Z" fill="#2B7288"/>
<path d="M73.0496 47.9747V42.6949H67.8047V47.9705L73.0496 47.9747Z" fill="#2B7288"/>
<path d="M77.9512 52.9001V47.9789H73.0547V52.9001H77.9512Z" fill="#2B7288"/>
<path d="M62.9016 23H53.1016V27.9255H62.9016V23Z" fill="#121D1F"/>
<path d="M53.1021 27.9241H47.8516V32.8481H53.1021V27.9241Z" fill="#121D1F"/>
<path d="M67.7978 27.9241H62.8984V32.8481H67.7978V27.9241Z" fill="#121D1F"/>
<path d="M47.8525 32.8495H42.9531V37.775H47.8525V32.8495Z" fill="#121D1F"/>
<path d="M73.0474 32.8495H67.7969V37.775H73.0474V32.8495Z" fill="#121D1F"/>
<path d="M42.9476 37.7736H38.0469V42.6977H42.9476V37.7736Z" fill="#121D1F"/>
<path d="M77.9476 37.7736H73.0469V42.6977H77.9476V37.7736Z" fill="#121D1F"/>
<path d="M38.0478 42.6991H33.1484V47.9761H38.0478V42.6991Z" fill="#121D1F"/>
<path d="M82.8525 42.6991H77.9531V47.9761H82.8525V42.6991Z" fill="#121D1F"/>
<path d="M33.1493 47.9747H28.25V52.8987H33.1493V47.9747Z" fill="#121D1F"/>
<path d="M87.7523 47.9747H82.8516V52.8987H87.7523V47.9747Z" fill="#121D1F"/>
<path d="M28.2505 52.9001H23V62.7497H28.2505V52.9001Z" fill="#121D1F"/>
<path d="M93.0005 52.9001H87.75V62.7497H93.0005V52.9001Z" fill="#121D1F"/>
<path d="M33.1493 62.7498H28.25V68.0268H33.1493V62.7498Z" fill="#121D1F"/>
<path d="M87.7523 62.7498H82.8516V68.0268H87.7523V62.7498Z" fill="#121D1F"/>
<path d="M38.0478 68.0253H33.1484V72.9494H38.0478V68.0253Z" fill="#121D1F"/>
<path d="M82.8525 68.0253H77.9531V72.9494H82.8525V68.0253Z" fill="#121D1F"/>
<path d="M42.9476 72.9508H38.0469V77.8749H42.9476V72.9508Z" fill="#121D1F"/>
<path d="M77.9476 72.9508H73.0469V77.8749H77.9476V72.9508Z" fill="#121D1F"/>
<path d="M47.8525 77.8748H42.9531V82.7988H47.8525V77.8748Z" fill="#121D1F"/>
<path d="M73.0474 77.8748H67.7969V82.7988H73.0474V77.8748Z" fill="#121D1F"/>
<path d="M53.1021 82.8003H47.8516V88.0773H53.1021V82.8003Z" fill="#121D1F"/>
<path d="M67.7978 82.8003H62.8984V88.0773H67.7978V82.8003Z" fill="#121D1F"/>
<path d="M62.9016 88.0759H53.1016V93H62.9016V88.0759Z" fill="#121D1F"/>
</svg>
