<svg width="16" height="16" viewBox="0 0 16 16" fill="none" xmlns="http://www.w3.org/2000/svg">
<g clip-path="url(#clip0_883_6426)">
<path d="M0.276121 7.46419L4.18879 9.41419C4.34012 9.48886 4.51879 9.48353 4.66345 9.39886L8.14612 7.37419L6.03812 9.24219C5.93079 9.33753 5.86945 9.47353 5.86945 9.61686V14.1669C5.86945 14.6469 6.48212 14.8489 6.76945 14.4675L8.46079 12.2189L12.6435 14.6009C12.9368 14.7695 13.3128 14.6002 13.3808 14.2649L15.9895 1.26486C16.0675 0.874192 15.6788 0.555525 15.3175 0.700858L0.317454 6.55086C-0.0852123 6.70819 -0.111212 7.27153 0.276121 7.46419ZM14.8295 1.96486L12.5368 13.3895L8.57345 11.1322C8.35746 11.0089 8.07946 11.0635 7.92612 11.2662L6.86945 12.6709V9.84153L12.5701 4.79086C13.0215 4.39153 12.5028 3.68152 11.9875 3.98419L4.39412 8.39886L1.73279 7.07286L14.8295 1.96486Z" fill="black"/>
</g>
<defs>
<clipPath id="clip0_883_6426">
<rect width="16" height="16" fill="white"/>
</clipPath>
</defs>
</svg>
