<svg width="16" height="16" viewBox="0 0 16 16" fill="none" xmlns="http://www.w3.org/2000/svg">
<path d="M0.314433 13.0633C1.79577 14.0033 3.51977 14.4999 5.29977 14.4999C7.90643 14.4999 10.2951 13.4986 12.0264 11.6806C13.6831 9.94059 14.5944 7.60259 14.5491 5.22993C15.1771 4.69259 15.9158 3.66659 15.9158 2.66659C15.9158 2.28326 15.4998 2.03993 15.1624 2.23526C14.5724 2.58193 14.0344 2.67259 13.4811 2.51726C12.3511 1.41593 10.6691 1.18393 9.25177 1.94793C8.0131 2.61459 7.32443 3.83459 7.38643 5.16793C5.29377 4.91259 3.36043 3.86326 2.01243 2.23259C1.7911 1.96659 1.3711 1.99793 1.1951 2.29926C0.545766 3.41126 0.552433 4.69993 1.1171 5.74059C0.848433 5.78793 0.682433 6.01393 0.682433 6.25859C0.682433 7.30459 1.1531 8.26593 1.9111 8.92193C1.76977 9.05793 1.7231 9.25993 1.7831 9.43993C2.11643 10.4413 2.8711 11.2239 3.81443 11.6159C2.78843 12.1059 1.65377 12.2693 0.643766 12.1453C0.1211 12.0746 -0.1369 12.7773 0.314433 13.0633ZM5.43643 11.7873C5.81043 11.4999 5.61177 10.9013 5.14243 10.8913C4.31577 10.8739 3.5631 10.4666 3.09443 9.82593C3.32043 9.81126 3.55443 9.7766 3.7771 9.71659C4.28443 9.57926 4.26043 8.84726 3.7451 8.74393C2.80977 8.55593 2.07577 7.8746 1.80043 6.99726C2.05177 7.05926 2.30777 7.09393 2.5631 7.09859C3.0691 7.10126 3.26043 6.45259 2.84777 6.18126C1.91777 5.56859 1.5211 4.48659 1.78377 3.46926C3.40777 5.11459 5.6111 6.10593 7.94177 6.21793C8.27577 6.23859 8.52643 5.92459 8.4531 5.60659C8.13643 4.23393 8.9031 3.27193 9.72643 2.82859C10.5411 2.38859 11.8491 2.25126 12.8518 3.30326C13.1498 3.61726 14.1551 3.62926 14.6664 3.50993C14.4371 3.94193 14.0844 4.35193 13.7544 4.58259C13.6138 4.68126 13.5331 4.84526 13.5418 5.01659C13.6491 7.20659 12.8331 9.38393 11.3031 10.9899C9.76177 12.6079 7.63043 13.4993 5.30043 13.4993C4.37377 13.4993 3.4651 13.3486 2.60643 13.0579C3.6331 12.8593 4.60843 12.4246 5.43643 11.7873Z" fill="black"/>
</svg>
