<svg width="20" height="20" viewBox="0 0 20 20" fill="none" xmlns="http://www.w3.org/2000/svg">
<path d="M5.67969 11.6142H7.77802V19.3742C7.77802 19.7192 8.05719 19.9992 8.40302 19.9992L11.7422 20C12.088 20 12.3672 19.7192 12.3672 19.375V11.615H14.3564C14.6714 11.615 14.9372 11.38 14.9764 11.0675L15.3914 7.73417C15.438 7.3625 15.1472 7.03167 14.7714 7.03167H12.3672C12.4614 4.9725 12.0047 4.36333 13.3439 4.36333C14.2505 4.255 15.6805 4.71417 15.6805 3.73833V0.7575C15.6805 0.445 15.4497 0.180833 15.1405 0.138333C14.8789 0.1025 13.8447 0 12.5622 0C6.72052 0 7.92302 6.47667 7.77885 7.03083H5.67969C5.33469 7.03083 5.05469 7.31083 5.05469 7.65583V10.9892C5.05469 11.3342 5.33469 11.6142 5.67969 11.6142ZM6.30469 8.28167H8.40302C8.74802 8.28167 9.02802 8.00167 9.02802 7.65667V5.03083C9.02802 2.62833 10.3155 1.25083 12.5614 1.25083C13.293 1.25083 13.9664 1.28667 14.4297 1.32333V3.11417C14.0947 3.285 11.1164 2.3775 11.1164 5.36167V7.6575C11.1164 8.0025 11.3964 8.2825 11.7414 8.2825H14.063L13.803 10.3658H11.7414C11.3964 10.3658 11.1164 10.6458 11.1164 10.9908V18.75H9.02885V10.99C9.02885 10.645 8.74885 10.365 8.40385 10.365H6.30469V8.28167Z" fill="#C9E2E9"/>
</svg>
