<svg width="20" height="20" viewBox="0 0 20 20" fill="none" xmlns="http://www.w3.org/2000/svg">
<g clip-path="url(#clip0_1058_3632)">
<path d="M15.4943 20.0005C15.5801 20.0005 19.4626 19.9996 19.3776 19.9996C19.7226 19.9996 20.0026 19.7196 20.0026 19.3746C19.7109 12.8271 21.5376 5.91797 14.7209 5.91797C13.4101 5.91797 12.3659 6.36547 11.6134 6.95714C11.6134 5.73964 10.2976 6.41297 7.26011 6.23214C6.91511 6.23214 6.63511 6.51214 6.63511 6.85714C6.88678 18.6621 6.07345 19.9996 7.26011 19.9996H11.1434C12.2709 19.9996 11.5534 18.4096 11.7684 13.1763C11.7684 11.0146 12.3934 10.5913 13.4734 10.5913C14.6684 10.5913 14.8693 11.4213 14.8693 13.2813C15.0834 18.4205 14.3709 20.0005 15.4943 20.0005ZM13.4734 9.3413C9.73095 9.3413 10.5184 13.4563 10.5184 18.7496H7.88511V7.48214H10.3634V8.5638C10.3634 9.1638 11.2776 9.4588 11.5959 8.85547C12.0059 8.07714 13.0709 7.16797 14.7209 7.16797C17.6601 7.16797 18.7526 8.61214 18.7526 12.498V18.7505H16.1193C16.1193 12.7971 16.7493 9.3413 13.4734 9.3413Z" fill="#C9E2E9"/>
<path d="M0.93064 6.23275C-0.252694 6.23275 0.557306 7.55358 0.30564 19.3752C0.30564 19.7202 0.58564 20.0002 0.93064 20.0002H4.81814C6.00147 20.0002 5.19147 18.6794 5.44314 6.85775C5.44314 5.77858 3.87564 6.41525 0.93064 6.23275ZM4.19314 18.7502H1.55564V7.48275H4.19314V18.7502Z" fill="#C9E2E9"/>
<path d="M2.87469 0C-0.938639 0 -0.915306 5.77417 2.87469 5.77417C6.66219 5.77417 6.69219 0 2.87469 0ZM2.87469 4.52417C0.734694 4.52417 0.714694 1.25 2.87469 1.25C5.03886 1.25 5.01136 4.52417 2.87469 4.52417Z" fill="#C9E2E9"/>
</g>
<defs>
<clipPath id="clip0_1058_3632">
<rect width="20" height="20" fill="white"/>
</clipPath>
</defs>
</svg>
