<svg width="20" height="20" viewBox="0 0 20 20" fill="none" xmlns="http://www.w3.org/2000/svg">
<path d="M0.345151 9.33L5.23598 11.7675C5.42515 11.8608 5.64848 11.8542 5.82932 11.7483L10.1827 9.2175L7.54765 11.5525C7.41348 11.6717 7.33682 11.8417 7.33682 12.0208V17.7083C7.33682 18.3083 8.10265 18.5608 8.46182 18.0842L10.576 15.2733L15.8043 18.2508C16.171 18.4617 16.641 18.25 16.726 17.8308L19.9868 1.58083C20.0843 1.0925 19.5985 0.694162 19.1468 0.875829L0.396818 8.18833C-0.106515 8.385 -0.139015 9.08916 0.345151 9.33ZM18.5368 2.45583L15.671 16.7367L10.7168 13.915C10.4468 13.7608 10.0993 13.8292 9.90765 14.0825L8.58682 15.8383V12.3017L15.7127 5.98833C16.2768 5.48916 15.6285 4.60166 14.9843 4.98L5.49265 10.4983L2.16598 8.84083L18.5368 2.45583Z" fill="#C9E2E9"/>
</svg>
