<svg width="20" height="20" viewBox="0 0 20 20" fill="none" xmlns="http://www.w3.org/2000/svg">
<path d="M0.392065 16.3288C2.24373 17.5038 4.39873 18.1247 6.62373 18.1247C9.88207 18.1247 12.8679 16.873 15.0321 14.6005C17.1029 12.4255 18.2421 9.503 18.1854 6.53717C18.9704 5.8655 19.8937 4.583 19.8937 3.333C19.8937 2.85383 19.3737 2.54967 18.9521 2.79383C18.2146 3.22717 17.5421 3.3405 16.8504 3.14633C15.4379 1.76967 13.3354 1.47967 11.5637 2.43467C10.0154 3.268 9.15457 4.793 9.23207 6.45967C6.61623 6.1405 4.19956 4.82883 2.51456 2.7905C2.2379 2.458 1.7129 2.49717 1.4929 2.87383C0.681231 4.26383 0.689565 5.87467 1.3954 7.1755C1.05956 7.23467 0.852065 7.51717 0.852065 7.823C0.852065 9.1305 1.4404 10.3322 2.3879 11.1522C2.21123 11.3222 2.1529 11.5747 2.2279 11.7997C2.64457 13.0513 3.5879 14.0297 4.76707 14.5197C3.48457 15.1322 2.06623 15.3363 0.803731 15.1813C0.150398 15.093 -0.172102 15.9713 0.392065 16.3288ZM6.79457 14.7338C7.26207 14.3747 7.01373 13.6263 6.42707 13.6138C5.39373 13.5922 4.4529 13.083 3.86706 12.2822C4.14957 12.2638 4.44206 12.2205 4.7204 12.1455C5.35456 11.9738 5.32456 11.0588 4.6804 10.9297C3.51123 10.6947 2.59373 9.843 2.24956 8.74633C2.56373 8.82383 2.88373 8.86717 3.2029 8.873C3.8354 8.87633 4.07456 8.0655 3.55873 7.72633C2.39623 6.9605 1.9004 5.608 2.22873 4.33633C4.25873 6.393 7.0129 7.63217 9.92623 7.77217C10.3437 7.798 10.6571 7.4055 10.5654 7.008C10.1696 5.29217 11.1279 4.08967 12.1571 3.5355C13.1754 2.9855 14.8104 2.81383 16.0637 4.12883C16.4362 4.52133 17.6929 4.53633 18.3321 4.38717C18.0454 4.92717 17.6046 5.43967 17.1921 5.728C17.0162 5.85133 16.9154 6.05633 16.9262 6.2705C17.0604 9.008 16.0404 11.7297 14.1279 13.7372C12.2012 15.7597 9.53707 16.8738 6.62457 16.8738C5.46623 16.8738 4.3304 16.6855 3.25706 16.3222C4.5404 16.0738 5.75957 15.5305 6.79457 14.7338Z" fill="#C9E2E9"/>
</svg>
